<svg width="88" height="27" viewBox="0 0 88 27" fill="none" xmlns="http://www.w3.org/2000/svg">
<g clip-path="url(#clip0)">
<path fill-rule="evenodd" clip-rule="evenodd" d="M54.5934 21.1149C49.4796 24.9525 42.0674 27 35.6857 27C26.7375 27 18.6817 23.6304 12.5873 18.026C12.1085 17.5853 12.5375 16.9847 13.1121 17.3279C19.6892 21.2241 27.8215 23.568 36.222 23.568C41.8874 23.568 48.1198 22.3746 53.8503 19.898C54.716 19.5236 55.44 20.4752 54.5934 21.1149Z" fill="white"/>
<path fill-rule="evenodd" clip-rule="evenodd" d="M56.7197 18.6383C56.0685 17.7881 52.3988 18.2366 50.7516 18.4355C50.2498 18.4979 50.1732 18.0533 50.6252 17.7335C53.548 15.6391 58.3438 16.2436 58.9031 16.9457C59.4624 17.6516 58.7575 22.5461 56.011 24.8822C55.5897 25.241 55.1874 25.0499 55.3751 24.5741C55.9919 23.0063 57.3747 19.4924 56.7197 18.6383Z" fill="white"/>
<path fill-rule="evenodd" clip-rule="evenodd" d="M50.8664 2.94858V0.912754C50.8664 0.604651 51.0963 0.397949 51.3721 0.397949H60.3242C60.6114 0.397949 60.8413 0.608552 60.8413 0.912754V2.65607C60.8375 2.94858 60.5961 3.33078 60.1671 3.93529L55.5283 10.6785C57.252 10.6356 59.0715 10.8969 60.6344 11.7939C60.9868 11.9967 61.0826 12.2931 61.1094 12.5856V14.7579C61.1094 15.0543 60.7877 15.4014 60.4506 15.222C57.6964 13.7517 54.0382 13.5918 50.9928 15.2376C50.6826 15.4092 50.357 15.066 50.357 14.7696V12.7065C50.357 12.375 50.3608 11.8095 50.6864 11.3064L56.0607 3.45948H51.3836C51.0963 3.45948 50.8664 3.25278 50.8664 2.94858Z" fill="white"/>
<path fill-rule="evenodd" clip-rule="evenodd" d="M18.2106 15.6508H15.487C15.2266 15.6313 15.0197 15.4324 15.0006 15.1789V0.947685C15.0006 0.662982 15.2342 0.436778 15.5254 0.436778H18.065C18.3293 0.448471 18.54 0.65518 18.5592 0.912582V2.7729H18.609C19.2717 0.974983 20.5166 0.136475 22.1944 0.136475C23.899 0.136475 24.9639 0.974983 25.73 2.7729C26.3889 0.974983 27.8866 0.136475 29.4917 0.136475C30.6332 0.136475 31.8819 0.616179 32.6442 1.69259C33.5061 2.8899 33.3299 4.62932 33.3299 6.15424L33.3261 15.136C33.3261 15.4207 33.0924 15.6508 32.8013 15.6508H30.0816C29.8096 15.6313 29.5913 15.409 29.5913 15.136V7.59335C29.5913 6.99274 29.6449 5.49513 29.5146 4.92572C29.3116 3.97021 28.7026 3.70111 27.9135 3.70111C27.2546 3.70111 26.5651 4.14961 26.2855 4.86722C26.0058 5.58483 26.0326 6.78604 26.0326 7.59335V15.136C26.0326 15.4207 25.799 15.6508 25.5079 15.6508H22.7881C22.5123 15.6313 22.2978 15.409 22.2978 15.136L22.294 7.59335C22.294 6.00603 22.5506 3.66991 20.6162 3.66991C18.6588 3.66991 18.7354 5.94753 18.7354 7.59335V15.136C18.7354 15.4207 18.5017 15.6508 18.2106 15.6508" fill="white"/>
<path fill-rule="evenodd" clip-rule="evenodd" d="M68.5482 0.136475C72.5895 0.136475 74.7768 3.66991 74.7768 8.16276C74.7768 12.5035 72.3597 15.9472 68.5482 15.9472C64.5797 15.9472 62.4193 12.4138 62.4193 8.01066C62.4193 3.58021 64.6065 0.136475 68.5482 0.136475ZM68.5712 3.04201C66.564 3.04201 66.4376 5.82663 66.4376 7.56215C66.4376 9.30157 66.4107 13.0144 68.5482 13.0144C70.6589 13.0144 70.7585 10.0192 70.7585 8.19396C70.7585 6.99275 70.7087 5.55753 70.3524 4.41872C70.046 3.42811 69.4369 3.04201 68.5712 3.04201Z" fill="white"/>
<path fill-rule="evenodd" clip-rule="evenodd" d="M80.0171 15.6508H77.305C77.0331 15.6313 76.8147 15.409 76.8147 15.136L76.8109 0.900882C76.8339 0.639579 77.0599 0.436778 77.3357 0.436778H79.86C80.0975 0.448471 80.2929 0.61228 80.3465 0.834583V3.0108H80.3963C81.1586 1.06468 82.2273 0.136475 84.1081 0.136475C85.3301 0.136475 86.5214 0.58498 87.2875 1.81349C88 2.9523 88 4.86722 88 6.24393V15.2023C87.9694 15.4519 87.7434 15.6508 87.4752 15.6508H84.744C84.495 15.6313 84.2882 15.4441 84.2614 15.2023V7.47245C84.2614 5.91633 84.4376 3.63871 82.5568 3.63871C81.8941 3.63871 81.285 4.09112 80.9824 4.77752C80.5993 5.64723 80.5495 6.51304 80.5495 7.47245V15.136C80.5457 15.4207 80.3082 15.6508 80.0171 15.6508" fill="white"/>
<path fill-rule="evenodd" clip-rule="evenodd" d="M43.73 8.85309C43.73 9.9334 43.7568 10.8343 43.2205 11.7937C42.7877 12.5737 42.0982 13.0534 41.3359 13.0534C40.2901 13.0534 39.6772 12.2422 39.6772 11.0449C39.6772 8.68149 41.7573 8.25249 43.73 8.25249V8.85309ZM46.4765 15.6119C46.2965 15.7757 46.036 15.7874 45.833 15.6782C44.929 14.9138 44.7643 14.5589 44.2701 13.8295C42.7762 15.3818 41.7151 15.8459 39.7807 15.8459C37.4861 15.8459 35.7049 14.4067 35.7049 11.5246C35.7049 9.2743 36.9001 7.74158 38.6085 6.99277C40.0871 6.32977 42.1518 6.21277 43.73 6.02946V5.67066C43.73 5.01155 43.7798 4.23154 43.3967 3.66214C43.0673 3.15123 42.4314 2.94063 41.8683 2.94063C40.8302 2.94063 39.9071 3.48274 39.6811 4.60595C39.6351 4.85555 39.4551 5.10125 39.2061 5.11295L36.5668 4.82435C36.3446 4.77365 36.0956 4.59035 36.1608 4.24325C36.766 0.982813 39.6619 0 42.2514 0C43.5768 0 45.3082 0.358804 46.354 1.38061C47.6793 2.64033 47.5529 4.32125 47.5529 6.15037V10.4716C47.5529 11.7703 48.0815 12.3397 48.5795 13.0417C48.7519 13.2913 48.7902 13.5916 48.568 13.7788C48.0126 14.2508 47.0243 15.1283 46.4804 15.6197L46.4765 15.6119" fill="white"/>
<path fill-rule="evenodd" clip-rule="evenodd" d="M8.02507 8.85334C8.02507 9.93365 8.05188 10.8346 7.51561 11.794C7.08275 12.574 6.39707 13.0537 5.63096 13.0537C4.58521 13.0537 3.97615 12.2425 3.97615 11.0452C3.97615 8.68173 6.05615 8.25273 8.02507 8.25273V8.85334ZM10.7716 15.6121C10.5916 15.7759 10.3311 15.7876 10.1281 15.6784C9.22405 14.914 9.06316 14.5591 8.56518 13.8298C7.07126 15.382 6.01402 15.8461 4.07574 15.8461C1.78505 15.8461 0 14.407 0 11.5249C0 9.27454 1.19897 7.74182 2.90358 6.99302C4.38219 6.33001 6.44687 6.21301 8.02507 6.02971V5.6709C8.02507 5.0118 8.07487 4.23179 7.69564 3.66238C7.36238 3.15148 6.7265 2.94087 6.16724 2.94087C5.12915 2.94087 4.20215 3.48298 3.97615 4.60619C3.93018 4.8558 3.75014 5.1015 3.50498 5.1132L0.861881 4.82459C0.639707 4.7739 0.394549 4.59059 0.455839 4.24349C1.0649 0.983057 3.95699 0.000244141 6.54647 0.000244141C7.87185 0.000244141 9.60327 0.359049 10.649 1.38086C11.9744 2.64057 11.848 4.32149 11.848 6.15061V10.4719C11.848 11.7706 12.3766 12.34 12.8746 13.042C13.0508 13.2916 13.0891 13.5919 12.8669 13.7791C12.3115 14.251 11.3232 15.1285 10.7793 15.6199L10.7716 15.6121" fill="white"/>
</g>
<defs>
<clipPath id="clip0">
<rect width="88" height="27" fill="white"/>
</clipPath>
</defs>
</svg>
