<svg width="217" height="42" viewBox="0 0 217 42" fill="none" xmlns="http://www.w3.org/2000/svg">
<path d="M13.7151 41.3527H5.55727V20.9686H0V14.332H5.55706V9.60958C5.55706 4.01349 8.01495 0 16.1507 0C17.8714 0 20.5729 0.34764 20.5729 0.34764V6.51011H17.7355C14.8444 6.51011 13.7155 7.39158 13.7155 9.82854V14.332H20.4646L19.8636 20.9686H13.7153L13.7151 41.3527ZM32.4335 13.8017C32.3146 13.8017 32.1923 13.806 32.0713 13.809C24.5069 13.809 21.0459 19.5123 21.0459 27.6083C21.0459 37.8071 25.5352 41.8889 32.1304 41.8889C35.9037 41.8889 38.3828 40.297 39.8897 37.3262V41.3555H47.6489V14.3348H39.8897V18.4902C38.6593 15.8168 36.1109 13.8333 32.4335 13.8017ZM34.4064 20.1866C37.5835 20.1866 39.4904 22.4078 39.4904 26.1861L39.4978 30.045C39.4978 32.5916 37.9228 35.5708 34.4064 35.5708C29.0005 35.5708 29.1449 29.72 29.1449 27.7713C29.1449 21.2162 32.0252 20.1866 34.4064 20.1866ZM50.7825 27.8466C50.7825 24.5631 50.6258 13.8192 64.5907 13.8192C70.1965 13.8192 72.5373 15.6058 72.5373 15.6058L70.6559 21.4547C70.6559 21.4547 68.3182 20.1644 65.272 20.1644C61.3705 20.1644 58.881 22.4315 58.881 26.4202L58.8854 29.2803C58.8854 33.113 61.2874 35.6715 65.2801 35.6715C68.0551 35.6715 70.6128 34.3691 70.6128 34.3691L72.4894 40.0958C72.4894 40.0958 70.3491 41.8937 64.6299 41.8937C51.3331 41.8937 50.7827 32.2544 50.7827 27.8466H50.7825ZM118.033 13.809C125.597 13.809 129.113 19.5123 129.113 27.6083C129.113 37.8071 124.623 41.8889 118.028 41.8889C114.255 41.8889 111.465 40.2972 109.959 37.3262V41.3555L102.297 41.3525V0.821576L110.432 0.110455V18.1242C111.606 14.9726 115.464 13.809 118.033 13.809H118.033ZM115.752 20.1866C112.575 20.1866 110.432 22.4078 110.432 26.1861L110.424 30.045C110.419 32.5916 111.908 35.5708 115.752 35.5708C121.158 35.5708 121.014 29.72 121.014 27.7713C121.014 21.2162 118.134 20.1866 115.752 20.1866ZM86.6516 13.8314C78.0718 13.8314 73.5422 18.5202 73.5422 26.8527V28.4008C73.5422 39.2156 79.9032 42 87.4866 42C94.8577 42 98.1942 39.9335 98.1942 39.9335L96.672 34.4303C96.672 34.4303 92.7473 36.104 88.4619 36.104C84.0194 36.104 82.1088 34.9691 81.6191 30.6898H98.8445V26.2748C98.8445 17.2362 93.7609 13.8312 86.6514 13.8312L86.6516 13.8314ZM86.8583 19.342C89.8283 19.342 91.7527 21.1674 91.6471 25.4009H81.634C81.8077 20.9452 83.883 19.3422 86.8583 19.3422V19.342ZM145.333 13.7943C136.522 13.7943 131.884 18.771 131.884 27.6897C131.884 39.9265 139.879 41.8963 145.348 41.8963C153.353 41.8963 158.679 37.5764 158.679 27.8008C158.679 17.6261 152.69 13.7943 145.333 13.7943V13.7943ZM145.222 20.2087C149.096 20.2087 150.632 23.115 150.632 26.4232V29.2675C150.632 33.2751 148.483 35.5932 145.207 35.5932C142.144 35.5932 139.99 33.4249 139.99 29.2675V26.4232C139.99 21.9894 142.553 20.2087 145.222 20.2087V20.2087ZM174.884 13.7943C166.074 13.7943 161.435 18.771 161.435 27.6897C161.435 39.9265 169.431 41.8963 174.899 41.8963C182.904 41.8963 188.23 37.5764 188.23 27.8008C188.23 17.6261 182.242 13.7943 174.884 13.7943V13.7943ZM174.774 20.2087C178.648 20.2087 180.183 23.115 180.183 26.4232V29.2675C180.183 33.2751 178.035 35.5932 174.759 35.5932C171.695 35.5932 169.542 33.4249 169.542 29.2675V26.4232C169.542 21.9894 172.104 20.2087 174.774 20.2087V20.2087ZM191.304 41.3527V0.821576L199.463 0.110455V27.2769L207.557 14.332H216.172L207.729 27.7392L216.497 41.3527H207.857L199.463 28.1341V41.3527H191.304Z" fill="white"/>
</svg>
