<svg width="46" height="34" viewBox="0 0 46 34" fill="none" xmlns="http://www.w3.org/2000/svg">
<path d="M31.3636 0C31.9182 0 32.45 0.223884 32.8421 0.622398C33.2343 1.02091 33.4545 1.56141 33.4545 2.125V9.11107C33.4545 9.92363 34.3723 10.3969 35.0343 9.92584L44.3545 3.29375C44.5112 3.18209 44.6951 3.11631 44.8861 3.10356C45.0771 3.09082 45.2678 3.13161 45.4376 3.22149C45.6073 3.31136 45.7495 3.44687 45.8487 3.61325C45.9479 3.77962 46.0002 3.97048 46 4.165V29.835C46.0002 30.0295 45.9479 30.2204 45.8487 30.3868C45.7495 30.5531 45.6073 30.6886 45.4376 30.7785C45.2678 30.8684 45.0771 30.9092 44.8861 30.8964C44.6951 30.8837 44.5112 30.8179 44.3545 30.7063L35.0343 24.0742C34.3723 23.6031 33.4545 24.0764 33.4545 24.8889V31.875C33.4545 32.4386 33.2343 32.9791 32.8421 33.3776C32.45 33.7761 31.9182 34 31.3636 34H2.09091C1.53637 34 1.00453 33.7761 0.612413 33.3776C0.220291 32.9791 0 32.4386 0 31.875V2.125C0 1.56141 0.220291 1.02091 0.612413 0.622398C1.00453 0.223884 1.53637 0 2.09091 0H31.3636ZM13.3818 10.2627C13.3818 10.2621 13.3813 10.2616 13.3808 10.2616C13.1883 10.2618 13.0018 10.3295 12.8528 10.4532C12.7034 10.5771 12.6007 10.7496 12.5622 10.9416L12.5455 11.1095V22.8863C12.5454 23.0239 12.5783 23.1595 12.6413 23.2814C12.7042 23.4033 12.7953 23.5078 12.9068 23.586C13.0183 23.6641 13.1468 23.7136 13.2812 23.7302C13.4157 23.7467 13.5521 23.7299 13.6787 23.681L13.8314 23.6045L22.9373 17.714C23.0435 17.6449 23.133 17.5523 23.1991 17.4431C23.2651 17.3339 23.306 17.2109 23.3187 17.0834C23.3313 16.9558 23.3155 16.827 23.2722 16.7066C23.229 16.5862 23.1595 16.4773 23.069 16.388L22.9373 16.2817L13.8314 10.3913C13.6968 10.3064 13.5412 10.2622 13.3829 10.2637C13.3823 10.2637 13.3818 10.2633 13.3818 10.2627Z" fill="white"/>
</svg>
