<svg width="77" height="27" viewBox="0 0 77 27" fill="none" xmlns="http://www.w3.org/2000/svg">
<path fill-rule="evenodd" clip-rule="evenodd" d="M67.866 12.5785L62.9653 21.1822L58.7842 21.1991L67.866 5.00501L76.9139 21.1991H72.6665L67.866 12.5777V12.5785ZM54.67 17.4537H59.353L57.1788 21.1991H51.0751L51.0916 16.6386V5.10458H54.6874L54.6709 17.4537H54.67ZM41.8268 5.10542C46.2919 5.12229 49.9043 8.71667 49.8878 13.1599C49.8712 17.587 46.2588 21.1822 41.7928 21.1822C37.3442 21.1654 33.7318 17.571 33.7318 13.127C33.7484 8.69979 37.3608 5.10542 41.8268 5.10542ZM41.8102 17.4377C44.2014 17.4377 46.1239 15.5232 46.1239 13.1599C46.1413 10.7974 44.2014 8.86601 41.8268 8.86601C39.4514 8.84914 37.5115 10.7805 37.5115 13.1438C37.4949 15.5063 39.4348 17.4377 41.8094 17.4377H41.8102ZM27.0759 11.8816C27.0262 11.215 26.8581 10.3333 26.6073 9.48533C26.0911 7.7338 25.1936 6.12358 23.9818 4.77467C23.3459 4.07604 22.6273 3.42636 21.5559 2.66108C20.7392 2.25034 19.9362 1.8119 19.1482 1.34651C18.6299 1.04698 18.0106 0.67995 17.1917 0.414169C16.2208 0.180621 15.2284 0.0525001 14.231 0.0319505C13.2623 -0.0017995 12.2911 0.0825755 11.3546 0.264826C10.3677 0.431044 9.54804 0.696826 8.46093 0.963451C6.0019 2.04514 4.09594 3.67611 2.45659 5.84033C-3.26294 13.9783 1.90517 25.379 11.4548 26.7265C13.0271 26.9434 14.5994 26.8598 16.0872 26.5105L17.1412 26.2279C17.1744 26.211 17.2249 26.1941 17.258 26.1941L18.4627 25.7284C18.5289 25.6946 18.5794 25.6777 18.6465 25.6448L19.1482 25.412C20.1109 24.9278 21.0146 24.3303 21.8407 23.6316C21.0887 24.328 20.2708 24.9466 19.3991 25.4786L19.4487 25.5124C19.6168 25.4617 19.7667 25.412 19.9339 25.379C19.9339 25.379 19.9339 25.6448 19.9008 25.595C19.6334 25.795 20.0515 25.6119 20.5864 25.3284C21.1221 25.0458 21.6404 24.6956 22.1081 24.2965C22.7945 23.7143 23.3965 23.0815 24.2492 22.0505C25.1186 20.5022 26.2065 19.1539 26.7083 17.3398C26.8755 16.8572 27.0254 16.2919 27.1264 15.7088C27.2257 15.1266 27.2936 14.5276 27.2936 13.9116C27.2771 13.2957 27.21 12.6629 27.0759 11.8816ZM14.6996 25.5621C17.6264 25.0955 20.0846 23.4485 22.0916 21.2016C22.6438 20.3857 23.0785 19.6365 23.6134 18.8214C24.2824 17.1567 24.2327 15.6759 24.4496 14.628C24.7179 12.7295 24.082 11.199 23.5471 9.56801C22.7275 7.67042 21.6404 6.25629 19.7336 5.15773C14.9165 2.12867 8.36075 2.97664 5.23356 7.5042C5.217 7.5042 5.13254 7.62064 4.9653 7.85351C5.18305 6.92201 5.7353 6.37273 6.28672 5.83948C7.92607 4.47514 9.83286 3.39261 12.0071 2.86104C14.4661 2.59442 16.9069 2.86104 19.0977 3.94273C22.3764 5.83948 24.5506 8.81961 25.102 12.3465V15.6093C24.4165 20.9519 19.9008 25.0129 14.6996 25.5621ZM26.7248 13.4121C26.6073 5.59058 18.9644 0.314607 11.5219 1.38026C9.34768 1.9287 6.97227 3.02726 5.28323 4.55867C4.46356 5.10711 4.07938 6.12298 3.25971 6.93805C-0.0190036 11.8149 0.550631 18.0561 4.6308 21.8513C5.15418 22.3786 5.71303 22.8681 6.30328 23.3161C2.89209 21.2345 1.35292 18.0882 0.818061 14.2618C0.818061 12.8966 1.08549 11.5483 1.36948 10.184C3.27709 4.20851 9.28061 -0.135112 15.8206 0.963451C16.9078 1.23008 17.9949 1.51273 19.0994 1.77936C20.4704 2.32779 21.825 3.1437 22.9121 4.22623C23.9992 5.30708 24.8189 6.67226 25.6386 8.01973C26.19 9.10226 26.4582 10.4666 26.7257 11.5483C26.7753 12.1642 26.7753 12.797 26.7257 13.413L26.7248 13.4121Z" fill="white"/>
<path fill-rule="evenodd" clip-rule="evenodd" d="M19.9355 13.5302C19.9355 16.8926 17.1594 19.6221 13.7308 19.6221C10.3031 19.6221 7.52612 16.8926 7.52612 13.5302C7.52612 10.1687 10.3023 7.43921 13.7308 7.43921C17.1594 7.43921 19.9355 10.1687 19.9355 13.5311V13.5302Z" fill="white"/>
<path fill-rule="evenodd" clip-rule="evenodd" d="M19.9695 12.4985C19.8859 12.0328 19.7517 11.6666 19.6184 11.151C19.0828 10.0187 18.297 9.137 17.2596 8.38775C13.3798 5.77551 8.04443 8.28819 7.47646 12.7491C7.25953 14.5134 7.87801 16.211 8.98168 17.5095C8.64719 17.1594 8.27957 16.794 8.0287 16.3772L7.99558 16.411C8.0287 16.5105 8.16283 16.5772 8.19595 16.6768C8.19595 16.6768 8.06182 16.6768 8.09577 16.6599C7.99558 16.5443 8.07921 16.7274 8.22907 16.9763C8.3632 17.226 8.53045 17.4598 8.73081 17.6758C9.01563 17.9922 9.31618 18.2748 9.81792 18.6579C10.5548 19.0401 11.2064 19.5396 12.0592 19.7725C12.2935 19.84 12.5609 19.9058 12.8292 19.9556C13.1132 20.0062 13.3806 20.0231 13.682 20.0231C13.966 20.0231 14.2674 19.9893 14.635 19.9218C15.0141 19.8763 15.3888 19.7987 15.7552 19.6898C16.5737 19.4387 17.3277 19.0065 17.9634 18.4242C18.2813 18.1255 18.7334 17.7424 19.0836 17.2429C19.3684 16.6776 19.4015 16.3941 19.5357 16.1443C19.669 15.8946 19.8362 15.6119 19.9538 15.2289C20.0496 14.7744 20.1056 14.3122 20.121 13.8477C20.1045 13.3819 20.0713 12.9322 19.9703 12.4993L19.9695 12.4985ZM15.9887 9.40363C16.5575 9.73607 16.6411 9.78585 16.3397 9.56985C16.7752 9.66941 17.0427 9.91916 17.3101 10.1689C17.9625 10.9182 18.4974 11.7999 18.7648 12.8149C18.9155 13.9633 18.7979 15.1116 18.3136 16.1275C17.4442 17.6749 16.0557 18.7068 14.3998 18.9895C14.216 18.9895 14.0157 18.9895 13.831 19.0063C14.2997 18.9228 14.601 18.6233 15.4538 18.3069C16.3729 17.9744 17.4103 16.427 17.9129 15.5276C19.3841 13.0807 17.6446 10.8178 15.9887 9.40363ZM12.8449 19.0224C10.3031 18.7566 8.34581 16.643 8.07838 14.1961C8.31186 15.5613 9.11498 16.6093 10.2021 17.5416C10.5871 17.7913 11.1551 18.1407 11.5401 18.3904C12.1925 18.6402 12.5767 18.9068 13.2125 19.0232H12.8449V19.0224ZM19.6847 14.5792C19.5688 15.0956 19.4512 15.5942 19.3336 16.1106C19.0828 16.7434 18.7151 17.3923 18.2134 17.9078C17.7117 18.4242 17.0758 18.8233 16.4407 19.2063C15.939 19.4721 15.3031 19.6054 14.7848 19.7379C14.4835 19.7716 14.1324 19.6383 13.831 19.6223C17.5444 19.5219 20.0862 16.011 19.5348 12.5323C19.2666 11.5172 18.7317 10.6347 18.0793 9.75294C17.8118 9.36988 17.2927 9.137 16.9085 8.75394C14.5836 7.27316 11.507 7.57269 9.75085 9.52007C9.50461 9.77597 9.27531 10.0483 9.06448 10.3351C10.0017 8.93704 11.507 7.95576 13.3127 7.67226C13.9486 7.65538 14.601 7.77266 15.2361 7.8891C18.0462 8.75394 20.1367 11.5172 19.6847 14.58V14.5792Z" fill="#025554"/>
</svg>
