<svg width="72" height="27" viewBox="0 0 72 27" fill="none" xmlns="http://www.w3.org/2000/svg">
<path d="M59.1976 25.8526C66.0362 25.8526 71.6006 20.2865 71.6006 13.4461C71.6006 6.60155 66.0362 1.03955 59.1976 1.03955C52.3576 1.03955 46.7946 6.60155 46.7946 13.4461C46.7946 20.2865 52.3576 25.8526 59.1976 25.8526ZM59.1976 9.0221C61.6347 9.0221 63.6195 11.0066 63.6195 13.4447C63.6195 15.8828 61.6334 17.8646 59.1962 17.8646C56.7577 17.8646 54.7757 15.8828 54.7757 13.4434C54.7757 11.0026 56.7591 9.0194 59.1962 9.0194L59.1976 9.0221ZM12.403 25.8526C19.2417 25.8526 24.806 20.2865 24.806 13.4461C24.806 6.60155 19.2417 1.03955 12.403 1.03955C5.56574 1.03955 0 6.60155 0 13.4461C0 20.2865 5.56574 25.8526 12.403 25.8526ZM12.403 9.0221C14.8415 9.0221 16.8249 11.0066 16.8249 13.4447C16.8249 15.8828 14.8415 17.8646 12.403 17.8646C9.96589 17.8646 7.98385 15.8828 7.98385 13.4434C7.98385 11.0026 9.96725 9.0194 12.403 9.0194V9.0221ZM35.7935 8.74265L31.9857 1.20155H23.0699L31.3974 17.6986V25.4651H40.191V17.6986L48.5185 1.20155H39.5986L35.7949 8.74265H35.7935Z" fill="white"/>
</svg>
