<svg width="230" height="87" viewBox="0 0 230 87" fill="none" xmlns="http://www.w3.org/2000/svg">
<path d="M176.903 23.2601C177.801 22.5389 178.25 22.1783 178.7 21.8177C184.944 16.4985 192.94 17.0845 198.286 23.3954C198.825 24.0265 199.094 24.0715 199.633 23.5306C199.993 23.1249 200.397 22.8094 200.756 22.4037C204.934 18.3016 210.459 17.0845 215.626 19.3835C221.061 21.8177 223.981 26.1 224.026 32.0954C224.116 45.0327 224.071 57.9249 224.071 70.8622C224.071 75.4601 221.241 78.3451 216.704 78.3451C214.907 78.3451 213.11 78.2099 211.313 78.3902C209.471 78.5705 208.932 77.9845 208.932 76.0461C209.022 63.4244 208.977 50.8026 208.977 38.1809C208.977 37.6399 208.977 37.1441 208.977 36.6031C208.932 33.6731 207.764 32.456 204.979 32.3208C202.463 32.1855 200.711 33.7182 200.442 36.2876C200.397 36.8736 200.442 37.5047 200.442 38.0907C200.442 48.9995 200.442 59.8632 200.442 70.7721C200.442 75.5503 197.702 78.3451 192.94 78.3C190.514 78.255 187.235 79.3819 185.842 77.8042C184.629 76.4519 185.438 73.2513 185.438 70.8622C185.438 59.6829 185.438 48.4586 185.438 37.2793C185.438 33.3125 182.877 31.284 179.553 32.6363C177.487 33.4928 176.813 35.1607 176.813 37.3244C176.858 47.7824 176.813 58.1954 176.813 68.6534C176.813 69.4648 176.813 70.3213 176.813 71.1327C176.678 75.5052 173.893 78.255 169.581 78.3C167.784 78.3451 165.987 78.1648 164.19 78.3451C162.258 78.5254 161.674 77.9845 161.719 75.9109C161.809 58.1954 161.764 40.4798 161.764 22.7192C161.764 21.9529 161.809 21.2316 161.764 20.4653C161.674 19.4736 162.079 19.1581 163.067 19.1581C167.2 19.2031 171.288 19.2031 175.42 19.1581C176.454 19.1581 176.948 19.4285 176.858 20.5555C176.768 21.3669 176.858 22.0881 176.903 23.2601Z" fill="white"/>
<path d="M81.6679 47.6921C81.6679 53.8677 81.6679 59.9983 81.6679 66.174C81.623 74.1978 77.4452 78.3449 69.4491 78.39C65.9452 78.39 62.3964 78.4351 58.8925 78.39C51.7948 78.2999 46.5839 73.5667 46.2245 66.4444C45.955 61.3506 45.9101 56.2118 46.1796 51.118C46.539 43.8154 52.1093 38.6765 59.4765 38.5864C61.4081 38.5413 63.3847 38.5864 65.3163 38.5864C67.203 38.5413 67.9218 37.4595 67.8769 35.6563C67.8769 33.8532 67.0683 33.0418 65.2714 33.132C63.2499 33.1771 61.2284 33.1771 59.207 33.132C54.2655 33.0418 51.5253 30.3372 51.5702 25.4688C51.5702 23.4854 50.6718 20.8258 51.9745 19.6537C53.0976 18.662 55.6581 19.2931 57.5898 19.2931C62.621 19.248 67.6073 19.2931 72.6386 19.2931C77.9843 19.2931 81.623 22.9444 81.6679 28.3537C81.7128 34.7548 81.6679 41.246 81.6679 47.6921ZM67.9218 57.9247C67.9218 57.1584 67.9218 56.4372 67.9218 55.6708C67.9218 51.0729 67.9218 51.0729 63.3398 51.2532C61.0488 51.3434 59.7909 52.5154 59.746 54.9045C59.7011 56.7978 59.7011 58.646 59.746 60.5392C59.7909 63.7848 61.2284 64.6413 65.9003 64.7765C69.3593 64.8667 67.6073 62.4325 67.9218 61.0802C68.1015 60.0885 67.8769 58.9615 67.9218 57.9247ZM121.648 42.7786C121.648 49.6755 121.738 56.6175 121.603 63.5144C121.514 68.8335 120.256 73.6568 115.135 76.4967C113.068 77.6237 110.822 78.2548 108.486 78.2999C103.32 78.39 98.1542 78.2999 92.9882 78.39C91.7304 78.39 91.4609 77.9392 91.5058 76.8123C91.5956 74.919 91.4609 73.0708 91.5507 71.1776C91.6406 67.5714 94.3808 64.8216 97.9746 64.6864C100.31 64.5962 102.602 64.6413 104.937 64.6864C106.824 64.6864 107.857 63.9201 107.857 61.8916C107.857 59.818 106.869 59.0968 104.982 59.0517C101.838 58.9615 98.6933 59.4123 95.5937 58.5107C90.248 56.933 86.3398 52.4703 86.205 46.9258C85.9355 38.1356 86.1152 29.3455 86.0702 20.5553C86.0702 19.5636 86.3847 19.248 87.373 19.2931C91.0566 19.3382 94.6953 19.3833 98.3788 19.2931C99.996 19.248 99.7714 20.1496 99.7714 21.1413C99.7714 27.7677 99.7714 34.3491 99.7714 40.9755C99.7714 43.8605 101.119 45.3931 103.635 45.4833C106.6 45.5734 107.902 44.3563 107.902 41.3361C107.902 34.6646 107.947 27.948 107.857 21.2765C107.857 19.6988 108.262 19.248 109.834 19.2931C113.113 19.4284 116.437 19.4734 119.717 19.2931C121.514 19.203 121.783 19.8791 121.738 21.4569C121.603 28.5341 121.648 35.6563 121.648 42.7786ZM7.1874 53.0113C7.1874 45.6636 7.1874 38.2708 7.1874 30.9232C7.1874 23.7107 11.5897 19.203 18.8222 19.2931C23.539 19.3382 28.2558 18.7522 32.9276 19.6537C38.9023 20.8258 42.6757 25.4688 42.7206 31.6444C42.7655 38.1807 42.7206 44.717 42.7206 51.2532C42.7206 59.4574 37.914 64.461 29.7382 64.6864C27.2675 64.7765 24.7968 64.7315 22.3261 64.6864C21.203 64.6413 20.7089 65.0019 20.7538 66.219C20.8437 68.0221 20.7987 69.8252 20.7538 71.6284C20.664 75.505 17.9237 78.2999 14.1054 78.3449C11.8593 78.39 9.02919 79.2916 7.59169 77.9843C6.24404 76.7672 7.23232 73.8822 7.1874 71.7185C7.14248 65.4978 7.1874 59.232 7.1874 53.0113ZM20.7538 41.9672C20.7538 43.4097 20.7538 44.8071 20.7538 46.2496C20.7538 51.3434 20.7538 51.3434 25.83 50.8926C28.0312 50.7123 29.0644 49.6304 29.1093 47.4216C29.1542 44.8973 29.0194 42.3278 29.1542 39.8035C29.4237 32.5009 28.0761 33.2221 22.1464 33.1771C21.0683 33.1771 20.7089 33.4926 20.7089 34.5745C20.7987 37.0087 20.7538 39.4879 20.7538 41.9672Z" fill="white"/>
<path d="M134.361 53.1016C134.361 47.1063 134.316 41.0659 134.406 35.0705C134.406 33.6731 134.091 33.0871 132.564 33.1322C130.542 33.2224 127.847 33.8084 126.724 32.8167C125.331 31.5094 126.41 28.7146 126.23 26.5509C126.23 26.4156 126.23 26.2353 126.23 26.1001C126.23 23.9814 125.556 21.5022 126.454 19.9244C127.353 18.3467 130.093 19.3384 132.025 18.8426C135.843 17.8509 138.718 15.642 141.054 12.5768C142.671 10.5032 144.693 9.01562 147.298 8.51977C148.691 8.2493 149.544 8.42962 149.454 10.2327C149.32 12.7571 149.455 15.3265 149.41 17.8959C149.365 18.9778 149.769 19.3384 150.847 19.2933C152.644 19.2483 154.441 19.3384 156.238 19.2483C157.316 19.2032 157.675 19.6089 157.63 20.6908C157.585 24.3871 157.585 28.0384 157.63 31.7348C157.63 32.7716 157.361 33.3125 156.238 33.1773C156.013 33.1322 155.788 33.1773 155.564 33.1773C153.587 33.3576 150.847 32.2757 149.814 33.6281C148.826 34.8902 149.454 37.5047 149.454 39.5332C149.454 51.7944 149.41 64.0104 149.499 76.2716C149.499 77.9845 149.05 78.5254 147.343 78.3902C145.726 78.255 144.064 78.3902 142.402 78.3451C137.55 78.1648 134.361 74.8742 134.361 70.0058C134.361 64.371 134.361 58.7363 134.361 53.1016Z" fill="white"/>
</svg>
