<svg width="40" height="39" viewBox="0 0 40 39" fill="none" xmlns="http://www.w3.org/2000/svg">
<path d="M36 0H4C1.8 0 0.02 1.8 0.02 4L0.00134228 37.5839C0.000847187 38.4751 1.07829 38.9217 1.70845 38.2915L7.70711 32.2929C7.89464 32.1054 8.149 32 8.41421 32H36C38.2 32 40 30.2 40 28V4C40 1.8 38.2 0 36 0ZM9 24C8.44771 24 8 23.5523 8 23V19.4742C8 19.209 8.10536 18.9546 8.29289 18.7671L21.76 5.3C22.16 4.9 22.78 4.9 23.18 5.3L26.72 8.84C27.12 9.24 27.12 9.86 26.72 10.26L13.2327 23.7081C13.0453 23.895 12.7914 24 12.5266 24H9ZM32 23C32 23.5523 31.5523 24 31 24H19.4142C18.5233 24 18.0771 22.9229 18.7071 22.2929L20.7071 20.2929C20.8946 20.1054 21.149 20 21.4142 20H31C31.5523 20 32 20.4477 32 21V23Z" fill="white"/>
</svg>
