<svg width="168" height="36" viewBox="0 0 168 36" fill="none" xmlns="http://www.w3.org/2000/svg">
<path d="M10.8663 9.51057L9.4707 14.7019L17.4587 9.48102L12.2344 29.1807L17.5402 29.1852L25.2579 0.0878906" fill="white"/>
<path d="M2.26876 20.9033L0.0712891 29.1851H10.9461L15.396 12.3376L2.26876 20.9033ZM40.0439 13.612C39.7781 14.6105 39.266 15.3439 38.5022 15.8123C37.7401 16.2797 36.6707 16.5144 35.2901 16.5144H30.9041L32.4441 10.7114H36.8301C38.2089 10.7114 39.1561 10.9442 39.67 11.4188C40.1839 11.8935 40.308 12.6188 40.0439 13.6218V13.612ZM44.5851 13.4965C45.1433 11.4009 44.9129 9.78899 43.8922 8.66063C42.8732 7.54123 41.0851 6.97705 38.5332 6.97705H28.7447L22.8523 29.195H27.6079L29.9826 20.2397H33.1015C33.8015 20.2397 34.3527 20.3562 34.755 20.58C35.1581 20.8129 35.3947 21.2159 35.4674 21.7979L36.3162 29.195H41.4112L40.5853 22.2994C40.417 20.7591 39.7196 19.8547 38.4942 19.586C40.0563 19.1293 41.3651 18.3681 42.4195 17.3114C43.4666 16.2624 44.2147 14.9477 44.5851 13.5054V13.4965ZM56.1448 21.2427C55.7461 22.7472 55.1347 23.8845 54.308 24.6815C53.4804 25.4785 52.4915 25.8726 51.3379 25.8726C50.1629 25.8726 49.3663 25.4875 48.9455 24.7084C48.5237 23.9293 48.5095 22.8009 48.9012 21.3233C49.2928 19.8457 49.9175 18.6905 50.777 17.8576C51.6365 17.0248 52.6413 16.6084 53.795 16.6084C54.9469 16.6084 55.7355 17.0114 56.1342 17.8111C56.5418 18.6144 56.5507 19.7633 56.1519 21.2588L56.1448 21.2427ZM58.2289 13.38L57.6334 15.6278C57.3765 14.8218 56.8776 14.1771 56.1404 13.6935C55.4014 13.2188 54.487 12.9771 53.3962 12.9771C52.0582 12.9771 50.7734 13.3263 49.5418 14.0248C48.3101 14.7233 47.2291 15.7084 46.3076 16.98C45.3861 18.2517 44.7127 19.6935 44.2785 21.3144C43.8532 22.9442 43.7646 24.3681 44.0215 25.6039C44.2874 26.8487 44.8456 27.7979 45.7051 28.4606C46.5734 29.1323 47.681 29.4636 49.0367 29.4636C50.114 29.4691 51.1791 29.2337 52.1557 28.7741C53.1213 28.3339 53.9801 27.686 54.6722 26.8756L54.0519 29.2182H58.6506L62.8498 13.3881H58.2422L58.2289 13.38ZM79.3751 13.38H66.0015L65.0667 16.9084H72.8482L62.5609 25.8905L61.6819 29.2039H75.487L76.4218 25.6756H68.0838L78.5289 16.5591L79.3751 13.38ZM91.1466 21.2159C90.7328 22.7741 90.1188 23.9454 89.308 24.7084C88.4972 25.4785 87.5155 25.8636 86.3627 25.8636C83.9525 25.8636 83.1604 24.3144 83.9827 21.2159C84.3903 19.6756 85.007 18.5176 85.831 17.7376C86.6551 16.955 87.6537 16.5645 88.8277 16.5645C89.9796 16.5645 90.7576 16.9523 91.1581 17.7332C91.5586 18.5123 91.5551 19.6738 91.1466 21.2141V21.2159ZM93.8385 13.9756C92.7796 13.3093 91.4284 12.9762 89.7803 12.9762C88.1118 12.9762 86.5674 13.3075 85.1461 13.9702C83.7307 14.6287 82.4868 15.6118 81.5132 16.8412C80.5119 18.086 79.7915 19.5457 79.3494 21.2114C78.9152 22.8708 78.862 24.3278 79.1988 25.5753C79.5355 26.82 80.2443 27.7782 81.3076 28.4409C82.3798 29.109 83.7443 29.4412 85.419 29.4412C87.0671 29.4412 88.6 29.1063 90.0089 28.44C91.4177 27.7702 92.6228 26.8191 93.6241 25.5654C94.6253 24.3171 95.343 22.8609 95.7861 21.1953C96.2291 19.5296 96.2823 18.0753 95.9456 16.8251C95.6089 15.5803 94.9089 14.6221 93.8544 13.955L93.8385 13.9756ZM110.256 17.6087L111.434 13.3012C111.035 13.0953 110.513 12.9878 109.857 12.9878C108.803 12.9878 107.792 13.2511 106.818 13.7848C105.98 14.2379 105.267 14.8773 104.665 15.6779L105.276 13.3585L103.941 13.3639H100.662L96.4356 29.1878H101.099L103.292 20.9159C103.611 19.7132 104.185 18.7666 105.014 18.095C105.838 17.4206 106.866 17.083 108.106 17.083C108.868 17.083 109.577 17.2594 110.25 17.6114L110.256 17.6087ZM123.231 21.292C122.833 22.7696 122.23 23.8979 121.406 24.6771C120.582 25.4597 119.59 25.8502 118.438 25.8502C117.286 25.8502 116.497 25.4562 116.081 24.6681C115.655 23.8756 115.647 22.7338 116.045 21.2329C116.444 19.7329 117.055 18.5821 117.897 17.7851C118.739 16.9818 119.731 16.5806 120.883 16.5806C122.017 16.5806 122.78 16.9926 123.187 17.8254C123.595 18.6582 123.604 19.8135 123.212 21.2911L123.231 21.292ZM126.473 14.0015C125.609 13.303 124.506 12.9538 123.168 12.9538C121.995 12.9538 120.878 13.2224 119.818 13.7651C118.759 14.3069 117.9 15.0457 117.24 15.9806L117.256 15.8732L118.038 13.3568H113.484L112.323 17.7359L112.287 17.8881L107.503 35.9275H112.172L114.582 26.8469C114.822 27.6547 115.309 28.2887 116.053 28.7472C116.798 29.2039 117.716 29.4305 118.809 29.4305C120.165 29.4305 121.458 29.0991 122.686 28.4365C123.917 27.772 124.981 26.8156 125.884 25.5797C126.788 24.3439 127.459 22.9111 127.887 21.2902C128.321 19.6666 128.41 18.2185 128.162 16.9514C127.909 15.6824 127.35 14.7 126.487 14.0051L126.473 14.0015ZM141.962 21.2275C141.563 22.723 140.952 23.8693 140.128 24.6573C139.304 25.4508 138.312 25.8457 137.16 25.8457C135.981 25.8457 135.184 25.4606 134.767 24.6815C134.342 23.9024 134.333 22.7741 134.723 21.2965C135.113 19.8188 135.735 18.6636 136.594 17.8308C137.454 16.9979 138.46 16.5824 139.613 16.5824C140.765 16.5824 141.545 16.9854 141.952 17.7824C142.36 18.5821 142.363 19.7311 141.966 21.2302L141.962 21.2275ZM144.044 13.3603L143.448 15.6081C143.191 14.7976 142.695 14.1529 141.959 13.6738C141.215 13.1956 140.303 12.9573 139.213 12.9573C137.875 12.9573 136.583 13.3066 135.349 14.0051C134.118 14.7036 133.037 15.6833 132.115 16.9514C131.194 18.2194 130.52 19.6648 130.086 21.2857C129.656 22.9129 129.572 24.3394 129.829 25.5806C130.089 26.8165 130.648 27.7711 131.513 28.4373C132.376 29.1 133.489 29.435 134.844 29.435C135.934 29.435 136.975 29.2057 137.963 28.7454C138.927 28.3032 139.783 27.6545 140.474 26.8442L139.853 29.1887H144.452L148.65 13.3648H144.052L144.044 13.3603ZM167.957 13.3657L167.96 13.3612H165.133C165.043 13.3612 164.963 13.3657 164.881 13.3675H163.414L162.661 14.4242L162.475 14.675L162.395 14.8003L156.436 23.1896L155.205 13.3657H150.324L152.796 28.2941L147.338 35.9329H152.203L153.523 34.0406C153.56 33.9851 153.594 33.9385 153.638 33.8794L155.18 31.6675L155.224 31.6048L162.129 21.7093L167.951 13.3809L167.96 13.3756H167.957V13.3657Z" fill="white"/>
</svg>
