<svg width="44" height="39" viewBox="0 0 44 39" fill="none" xmlns="http://www.w3.org/2000/svg">
<path d="M44 37.375C44 37.8151 43.8639 38.196 43.5918 38.5176C43.3197 38.8392 42.9974 39 42.625 39C42.2526 39 41.9303 38.8392 41.6582 38.5176C41.3861 38.196 41.25 37.8151 41.25 37.375V24.771C41.25 20.8967 37.034 18.4944 33.701 20.4695L26.082 24.9844C24.9362 25.6615 23.5755 26 22 26C20.4245 26 19.0638 25.6615 17.918 24.9844L1.67578 15.3867C0.558594 14.7096 0 13.9056 0 12.9746C0 12.0436 0.558594 11.2565 1.67578 10.6133L17.918 1.01562C19.0638 0.338542 20.4245 0 22 0C23.5755 0 24.9362 0.338542 26.082 1.01562L42.3242 10.6133C43.2174 11.1411 43.7492 11.7828 43.9197 12.5383C43.95 12.6728 44 12.8113 44 12.9492V37.375ZM27.457 28.2344L29.5939 26.9651C32.3103 25.3517 35.75 27.3093 35.75 30.4688C35.75 31.9245 34.4108 33.1686 31.7324 34.2012C29.054 35.2337 25.8099 35.75 22 35.75C18.1901 35.75 14.946 35.2337 12.2676 34.2012C9.58919 33.1686 8.25 31.9245 8.25 30.4688C8.25 27.3093 11.6897 25.3517 14.4061 26.9651L16.543 28.2344C17.6888 28.9115 19.5078 29.25 22 29.25C24.4922 29.25 26.3112 28.9115 27.457 28.2344Z" fill="white"/>
</svg>
