<svg width="39" height="39" viewBox="0 0 39 39" fill="none" xmlns="http://www.w3.org/2000/svg">
<path d="M34.125 39H4.875C3.5293 39 2.38037 38.5239 1.42822 37.5718C0.476074 36.6196 0 35.4707 0 34.125V4.875C0 3.5293 0.476074 2.38037 1.42822 1.42822C2.38037 0.476074 3.5293 0 4.875 0H34.125C35.4707 0 36.6196 0.476074 37.5718 1.42822C38.5239 2.38037 39 3.5293 39 4.875V34.125C39 35.4707 38.5239 36.6196 37.5718 37.5718C36.6196 38.5239 35.4707 39 34.125 39ZM17.0435 2.4375C16.3706 2.4375 15.7993 2.67236 15.3296 3.14209C14.8599 3.61182 14.625 4.18311 14.625 4.85596C14.625 5.52881 14.8599 6.10645 15.3296 6.58887C15.7993 7.07129 16.377 7.3125 17.0625 7.3125C17.748 7.3125 18.3257 7.07129 18.7954 6.58887C19.2651 6.10645 19.5 5.52881 19.5 4.85596C19.5 4.18311 19.2588 3.61182 18.7764 3.14209C18.2939 2.67236 17.7163 2.4375 17.0435 2.4375ZM24.356 2.4375C23.6831 2.4375 23.1118 2.67236 22.6421 3.14209C22.1724 3.61182 21.9375 4.18311 21.9375 4.85596C21.9375 5.52881 22.1724 6.10645 22.6421 6.58887C23.1118 7.07129 23.6831 7.3125 24.356 7.3125C25.0288 7.3125 25.6064 7.07129 26.0889 6.58887C26.5713 6.10645 26.8125 5.52881 26.8125 4.85596C26.8125 4.18311 26.5713 3.61182 26.0889 3.14209C25.6064 2.67236 25.0288 2.4375 24.356 2.4375ZM31.6875 2.4375C31.002 2.4375 30.4243 2.67236 29.9546 3.14209C29.4849 3.61182 29.25 4.18311 29.25 4.85596C29.25 5.52881 29.4849 6.10645 29.9546 6.58887C30.4243 7.07129 31.002 7.3125 31.6875 7.3125C32.373 7.3125 32.9507 7.07129 33.4204 6.58887C33.8901 6.10645 34.125 5.52881 34.125 4.85596C34.125 4.18311 33.8901 3.61182 33.4204 3.14209C32.9507 2.67236 32.373 2.4375 31.6875 2.4375ZM34.125 12.1875C34.125 11.502 33.8838 10.9243 33.4014 10.4546C32.9189 9.98486 32.3477 9.75 31.6875 9.75H7.3125C6.62695 9.75 6.04932 9.98486 5.57959 10.4546C5.10986 10.9243 4.875 11.502 4.875 12.1875V31.6875C4.875 32.373 5.10986 32.9507 5.57959 33.4204C6.04932 33.8901 6.62695 34.125 7.3125 34.125H31.6875C32.3477 34.125 32.9189 33.8901 33.4014 33.4204C33.8838 32.9507 34.125 32.373 34.125 31.6875V12.1875ZM19.4619 28.8311C19.4111 29.1104 19.2969 29.3389 19.1191 29.5166L17.4053 31.2305C17.1514 31.4844 16.834 31.5986 16.4531 31.5732C16.0723 31.5986 15.7549 31.4844 15.501 31.2305L13.7871 29.5166C13.6602 29.3896 13.5586 29.25 13.4824 29.0977L7.65527 23.3086C7.42676 23.0801 7.3125 22.7944 7.3125 22.4517C7.3125 22.1089 7.42676 21.8232 7.65527 21.5947L9.40723 19.8428C9.63574 19.6143 9.92139 19.5 10.2642 19.5C10.6069 19.5 10.8926 19.6143 11.1211 19.8428L16.3389 24.9844L27.8408 12.5303C28.0947 12.3018 28.3931 12.1875 28.7358 12.1875C29.0786 12.1875 29.3643 12.3018 29.5928 12.5303L31.3447 14.2822C31.5732 14.5107 31.6875 14.7964 31.6875 15.1392C31.6875 15.4819 31.5732 15.7676 31.3447 15.9961L19.4619 28.8311Z" fill="white"/>
</svg>
