<svg width="13" height="13" viewBox="0 0 13 13" fill="none" xmlns="http://www.w3.org/2000/svg">
<path fill-rule="evenodd" clip-rule="evenodd" d="M7.28576 1.43806L8.42257 3.80031C8.53399 4.03222 8.74904 4.19302 8.99843 4.23024L11.5415 4.61099C12.1699 4.70534 12.4199 5.49741 11.9652 5.95126L10.1262 7.78923C9.94545 7.96997 9.86319 8.22978 9.90594 8.48494L10.3399 11.0798C10.4468 11.7217 9.78999 12.2114 9.22838 11.9077L6.9554 10.6817C6.73257 10.5615 6.4657 10.5615 6.24222 10.6817L3.96924 11.9077C3.40763 12.2114 2.75081 11.7217 2.85833 11.0798L3.29168 8.48494C3.33444 8.22978 3.25217 7.96997 3.07145 7.78923L1.23246 5.95126C0.777737 5.49741 1.02777 4.70534 1.6561 4.61099L4.19919 4.23024C4.44858 4.19302 4.66428 4.03222 4.7757 3.80031L5.91186 1.43806C6.19299 0.853979 7.00463 0.853979 7.28576 1.43806Z" fill="white" stroke="black" stroke-opacity="0.4" stroke-width="1.5" stroke-linecap="round"/>
</svg>
